<?xml version="1.0" encoding="UTF-8"?>
<svg id="_레이어_2" data-name="레이어 2" xmlns="http://www.w3.org/2000/svg" xmlns:xlink="http://www.w3.org/1999/xlink" viewBox="0 0 88 88">
  <defs>
    <style>
      .cls-1 {
        fill: none;
      }

      .cls-1, .cls-2 {
        stroke-width: 0px;
      }

      .cls-2 {
        fill: #fff;
      }

      .cls-3 {
        clip-path: url(#clippath);
      }
    </style>
    <clipPath id="clippath">
      <rect class="cls-1" width="88" height="88"/>
    </clipPath>
  </defs>
  <g id="_레이어_1-2" data-name="레이어 1">
    <g class="cls-3">
      <path class="cls-2" d="M65.93,56.31l-4.59-7.96v-11.7c.01-9.83-7.94-17.81-17.75-17.82-4.73,0-9.27,1.88-12.61,5.23-3.35,3.33-5.23,7.86-5.23,12.58v11.69l-4.59,7.96c-1.17,2.03-.48,4.63,1.55,5.8.65.37,1.38.57,2.12.57h11.57c.65,3.95,4.37,6.63,8.31,5.98,3.07-.5,5.47-2.91,5.98-5.98h11.57c2.34,0,4.24-1.9,4.24-4.25,0-.75-.2-1.48-.57-2.12h0ZM43.57,66.42c-2.26,0-4.23-1.55-4.77-3.74h9.53c-.54,2.19-2.51,3.73-4.77,3.74ZM63.9,59.39c-.33.6-.97.97-1.65.95H24.84c-1.05,0-1.91-.85-1.91-1.91,0-.33.09-.66.26-.95l4.75-8.23c.1-.18.16-.38.16-.59v-11.87c0-8.67,7.06-15.77,15.73-15.61s15.18,7.03,15.18,15.47v12.01c0,.21.05.41.16.59l4.75,8.23c.35.59.35,1.32,0,1.91h0Z"/>
    </g>
  </g>
</svg>