<?xml version="1.0" encoding="UTF-8"?>
<svg id="_레이어_2" data-name="레이어 2" xmlns="http://www.w3.org/2000/svg" viewBox="0 0 480 480">
  <defs>
    <style>
      .cls-1 {
        fill: #707070;
      }

      .cls-1, .cls-2, .cls-3, .cls-4, .cls-5, .cls-6, .cls-7, .cls-8, .cls-9, .cls-10, .cls-11 {
        stroke-width: 0px;
      }

      .cls-2 {
        fill: #595a5d;
      }

      .cls-3 {
        fill: #eaebef;
      }

      .cls-4 {
        fill: #2f518a;
      }

      .cls-5 {
        fill: #fbdac2;
      }

      .cls-6 {
        fill: #ffd55d;
      }

      .cls-7 {
        fill: #ededed;
      }

      .cls-8 {
        fill: #1394f6;
      }

      .cls-9 {
        fill: #f7f7f9;
      }

      .cls-10 {
        fill: #147af4;
      }

      .cls-11 {
        fill: #c0c2c4;
      }
    </style>
  </defs>
  <g id="_레이어_1-2" data-name="레이어 1">
    <g>
      <path class="cls-2" d="M208,384v-16c0-8.84,7.16-16,16-16h40v32h-56Z"/>
      <path class="cls-10" d="M256,210.74v-56.46l32-18.29-56,32h-88v-32h72l72-40h32c8.84,0,16,7.16,16,16v96l-80,2.74Z"/>
      <path class="cls-8" d="M320,96h-32l-72,40h-72v16h74.45c3.65,0,7.24-.89,10.47-2.58l27.16-14.22c4.6-2.4,10.27-.63,12.67,3.97.7,1.34,1.07,2.83,1.07,4.35v42.66c0,5.18,4.2,9.38,9.38,9.39h56.8v-83.57c0-8.84-7.16-16-16-16h0Z"/>
      <path class="cls-1" d="M448,416c0,35.35-28.65,64-64,64s-64-28.65-64-64h128Z"/>
      <path class="cls-10" d="M384,320v-32h-88v64c0,17.67-14.33,32-32,32h-64l-40-64v-75.2c0-13.11-6.17-25.46-16.66-33.34l-15.34-11.46h-32v56c0,17.67-14.33,32-32,32v40.72l80,87.28h336c0-53.02-42.98-96-96-96Z"/>
      <path class="cls-8" d="M136.36,309.6c-5.47-8.89-8.36-19.12-8.36-29.55v-80.05h-32v56c0,17.67-14.33,32-32,32v40.72l65.34,71.28h28.62c10.5,0,19.02-8.51,19.02-19.01,0-3.52-.98-6.97-2.82-9.97l-37.8-61.42Z"/>
      <path class="cls-9" d="M408,416c0,13.25-10.75,24-24,24s-24-10.75-24-24h48Z"/>
      <path class="cls-8" d="M160,416H0c0-53.02,42.98-96,96-96l64,96Z"/>
      <path class="cls-6" d="M72,128h24v72h-24c-8.84,0-16-7.16-16-16v-40c0-8.84,7.16-16,16-16Z"/>
      <path class="cls-1" d="M96,128h32v72h-32v-72Z"/>
      <circle class="cls-5" cx="144" cy="152" r="16"/>
      <path class="cls-2" d="M264,248h164c11.05,0,20,8.95,20,20s-8.95,20-20,20h-164v-40Z"/>
      <path class="cls-11" d="M384,120h80c8.84,0,16,7.16,16,16v96c0,8.84-7.16,16-16,16h-96v-112c0-8.84,7.16-16,16-16Z"/>
      <path class="cls-3" d="M264,352v-80c0-8.84,7.16-16,16-16h24c17.67,0,32-14.33,32-32v-16h-64c-26.51,0-48,21.49-48,48v96h40Z"/>
      <path class="cls-2" d="M296,96c26.51,0,48-21.49,48-48S322.51,0,296,0s-48,21.49-48,48h48v48Z"/>
      <path class="cls-5" d="M296,88c-22.09,0-40-17.91-40-40h40v40Z"/>
      <path class="cls-7" d="M464,120h-72v63.82c0,26.61,21.57,48.18,48.18,48.18h39.82v-96c0-8.84-7.16-16-16-16Z"/>
      <path class="cls-6" d="M96,320c-23.12-.01-45.45,8.36-62.86,23.56,5.04,23.58,25.88,40.43,49.99,40.44h55.54l-42.66-64Z"/>
      <path class="cls-8" d="M384,320h-72c0,17.67,14.33,32,32,32h45.91c18.83,0,34.09,15.26,34.09,34.09h0v9.3c0,11.38,9.23,20.61,20.61,20.61h35.39c0-53.02-42.98-96-96-96Z"/>
      <path class="cls-1" d="M144,416c0,35.35-28.65,64-64,64s-64-28.65-64-64h128Z"/>
      <path class="cls-9" d="M104,416c0,13.25-10.75,24-24,24s-24-10.75-24-24h48Z"/>
      <path class="cls-4" d="M352,392v-16h-67.04c-5.78,5.13-13.23,7.98-20.96,8h-64v8h152Z"/>
    </g>
  </g>
</svg>