<?xml version="1.0" encoding="UTF-8"?>
<svg id="_레이어_2" data-name="레이어 2" xmlns="http://www.w3.org/2000/svg" viewBox="0 0 464 464">
  <defs>
    <style>
      .cls-1 {
        fill: #707070;
      }

      .cls-1, .cls-2, .cls-3, .cls-4, .cls-5, .cls-6, .cls-7, .cls-8, .cls-9, .cls-10, .cls-11 {
        stroke-width: 0px;
      }

      .cls-2 {
        fill: #ffd54f;
      }

      .cls-3 {
        fill: #ffb74d;
      }

      .cls-4 {
        fill: #ffa726;
      }

      .cls-5 {
        fill: #ededed;
      }

      .cls-6 {
        fill: #d3d3d3;
      }

      .cls-7 {
        fill: #1394f6;
      }

      .cls-8 {
        fill: #eee;
      }

      .cls-9 {
        fill: #147af4;
      }

      .cls-10 {
        fill: #757575;
      }

      .cls-11 {
        fill: #ffca28;
      }
    </style>
  </defs>
  <g id="_레이어_1-2" data-name="레이어 1">
    <g id="_22-Investment" data-name=" 22-Investment">
      <path class="cls-7" d="M24,336h336v32H24v-32Z"/>
      <path class="cls-9" d="M360,336v32H24v-16h272c8.84,0,16-7.16,16-16h48Z"/>
      <path class="cls-7" d="M192,0c-5.18,0-10.22,1.74-14.3,4.93L0,144l22.48,28.64L192,40l169.52,132.64,22.48-28.64L206.3,4.93C202.22,1.74,197.18,0,192,0h0Z"/>
      <path class="cls-10" d="M336,106.43V0h-64v56.34l64,50.09Z"/>
      <path class="cls-5" d="M336,152.64v183.36H48v-183.36L192,40l144,112.64Z"/>
      <path class="cls-6" d="M335.57,152.3L192,40,48,152.64v30.5l144-112.67,120,93.89v171.64h24v-183.36l-.43-.34Z"/>
      <path class="cls-7" d="M296,264h-88v-72h88v72Z"/>
      <path class="cls-9" d="M296,192v72h-88v-24h32c17.67,0,32-14.33,32-32v-16h24Z"/>
      <path class="cls-10" d="M88,192h80v144h-80v-144Z"/>
      <path class="cls-1" d="M168,192v144h-80v-24h24c17.67,0,32-14.33,32-32v-88h24Z"/>
      <circle class="cls-2" cx="336" cy="336" r="128"/>
      <path class="cls-11" d="M464,336c-.04,70.73-57.4,128.04-128.13,128-15.94,0-31.74-2.99-46.59-8.8,4.88.48,9.76.8,14.72.8,70.7-.01,128.01-57.34,128-128.04,0-52.66-32.26-99.94-81.28-119.16,64.57,7.51,113.27,62.2,113.28,127.2Z"/>
      <circle class="cls-3" cx="336" cy="336" r="96"/>
      <path class="cls-4" d="M360,424c-52.98.03-95.97-42.89-96-95.88-.02-36.79,20.99-70.35,54.09-86.39-52.09,9.78-86.38,59.93-76.6,112.02,9.78,52.09,59.93,86.38,112.02,76.6,8.46-1.59,16.66-4.31,24.4-8.08-5.9,1.13-11.9,1.71-17.91,1.73Z"/>
      <path class="cls-8" d="M336,328c-8.84,0-16-7.16-16-16s7.16-16,16-16,16,7.16,16,16c0,4.42,3.58,8,8,8s8-3.58,8-8c-.04-14.55-9.91-27.24-24-30.86v-9.14c0-4.42-3.58-8-8-8s-8,3.58-8,8v9.14c-17.08,4.38-27.38,21.78-23,38.86,3.63,14.15,16.39,24.03,31,24,8.84,0,16,7.16,16,16s-7.16,16-16,16-16-7.16-16-16c0-4.42-3.58-8-8-8s-8,3.58-8,8c.04,14.55,9.91,27.24,24,30.86v9.14c0,4.42,3.58,8,8,8s8-3.58,8-8v-9.14c17.08-4.38,27.38-21.78,23-38.86-3.63-14.15-16.39-24.03-31-24Z"/>
      <path class="cls-1" d="M272,25.87v30.47l64,50.09v-30.47l-64-50.09Z"/>
    </g>
  </g>
</svg>