<svg id="Capa_1" enable-background="new 0 0 497 497" height="512" viewBox="0 0 497 497" width="512" xmlns="http://www.w3.org/2000/svg"><g><circle cx="248.5" cy="248.5" fill="#b7c5c8" r="248.5"/><circle cx="248.5" cy="248.5" fill="#fff" r="218.5"/><path d="m248.5 60v377c104.106 0 188.5-84.394 188.5-188.5s-84.394-188.5-188.5-188.5z" fill="#276ed9"/><path d="m407 248.5c0-104.106-70.963-188.5-158.5-188.5-104.106 0-188.5 84.394-188.5 188.5s84.394 188.5 188.5 188.5c87.537 0 158.5-84.394 158.5-188.5z" fill="#4388f0"/><circle cx="248.5" cy="347" fill="#fff" r="30"/><path d="m248.5 120v167c11.345 0 20.725-8.399 22.272-19.317.005 0 14.856-104.878 14.856-104.878.237-1.734.372-3.503.372-5.305 0-20.711-16.789-37.5-37.5-37.5z" fill="#d9f9ff"/><path d="m248.5 120c-20.711 0-37.5 16.789-37.5 37.5 0 1.802.135 3.571.38 5.305-.008 0 14.843 104.878 14.843 104.878 1.552 10.918 10.932 19.317 22.277 19.317 2.269 0 4.145-8.399 4.454-19.317.001 0 2.971-104.878 2.971-104.878.047-1.734.074-3.503.074-5.305.001-20.711-3.357-37.5-7.499-37.5z" fill="#fff"/></g></svg>