<?xml version="1.0" encoding="UTF-8"?>
<svg id="_레이어_2" data-name="레이어 2" xmlns="http://www.w3.org/2000/svg" viewBox="0 0 512 502.27">
  <defs>
    <style>
      .cls-1 {
        fill: #fed402;
      }

      .cls-1, .cls-2, .cls-3, .cls-4, .cls-5, .cls-6, .cls-7, .cls-8, .cls-9, .cls-10, .cls-11, .cls-12, .cls-13, .cls-14, .cls-15 {
        stroke-width: 0px;
      }

      .cls-2 {
        fill: #707070;
      }

      .cls-3 {
        fill: #fedf30;
      }

      .cls-4 {
        fill: #7a6d79;
      }

      .cls-5 {
        fill: #f6a96c;
      }

      .cls-6 {
        fill: #fff;
      }

      .cls-7 {
        fill: #ededed;
      }

      .cls-8 {
        fill: #e2e2e2;
      }

      .cls-9 {
        fill: #1394f6;
      }

      .cls-10 {
        fill: #ffbd86;
      }

      .cls-11 {
        fill: #d7aa02;
      }

      .cls-12 {
        fill: #685e68;
      }

      .cls-13 {
        fill: #ea9b58;
      }

      .cls-14 {
        fill: #147af4;
      }

      .cls-15 {
        fill: #c0c2c4;
      }
    </style>
  </defs>
  <g id="_레이어_1-2" data-name="레이어 1">
    <g>
      <g>
        <g>
          <path class="cls-5" d="m470.38,274.91h-29.99v59.28c0,2.38-1.94,4.32-4.32,4.32h-53.02c-6.24,23.68-27.83,41.2-53.45,41.2-4.7,0-9.27-.59-13.63-1.7v41.01h159.57v-138.97c0-2.84-2.31-5.15-5.15-5.15Z"/>
          <path class="cls-13" d="m329.59,379.72c-4.7,0-9.27-.59-13.63-1.7v41.01h36.47v-44.26c-6.97,3.17-14.7,4.96-22.84,4.96h0Z"/>
          <g>
            <path class="cls-5" d="m89.66,170.39h129.13v105.52H89.66v-105.52Z"/>
            <path class="cls-13" d="m89.66,170.39h33.34v105.52h-33.34v-105.52Z"/>
            <path class="cls-9" d="m183.69,210.82h-38.71c-1.71,0-3.09-1.38-3.09-3.09v-37.33h44.9v37.33c0,1.71-1.38,3.09-3.09,3.09Z"/>
            <path class="cls-14" d="m158.1,207.72v-37.33h-16.22v37.33c0,1.71,1.38,3.09,3.09,3.09h16.22c-1.71,0-3.09-1.38-3.09-3.09Z"/>
          </g>
          <path class="cls-10" d="m276.14,338.52h-53.02c-2.38,0-4.32-1.94-4.32-4.32v-59.28H89.66v144.12h226.3v-41.01c-19.4-4.94-34.73-20.16-39.82-39.5Z"/>
          <path class="cls-5" d="m89.66,274.91h33.34v144.12h-33.34v-144.12Z"/>
          <path class="cls-7" d="m434.72,87.24h-147.72c-6.58,32.4-35.03,56.94-69.21,57.53v189.43c0,2.94,2.38,5.32,5.32,5.32h53.31c-1.36-4.79-2.11-9.84-2.11-15.07,0-30.48,24.8-55.27,55.27-55.27s55.27,24.8,55.27,55.27c0,5.22-.74,10.27-2.11,15.07h53.31c2.94,0,5.32-2.38,5.32-5.32V88.24l-6.67-1Z"/>
          <path class="cls-9" d="m218.79,274.91h-43.56v43.96c0,1.71,1.38,3.09,3.09,3.09h40.46v-47.05Z"/>
          <path class="cls-14" d="m192,318.87v-43.96h-16.76v43.96c0,1.71,1.38,3.09,3.09,3.09h16.76c-1.71,0-3.09-1.38-3.09-3.09Z"/>
        </g>
        <path class="cls-7" d="m506.85,418.03H89.66v44.65l1,5.83h33.53c2.53-12.47,13.58-21.89,26.79-21.89s24.26,9.42,26.79,21.89h209.27c2.53-12.47,13.58-21.89,26.79-21.89s24.26,9.42,26.79,21.89h66.24c2.84,0,5.15-2.31,5.15-5.15v-40.17c0-2.85-2.31-5.15-5.15-5.15h0Z"/>
        <g>
          <path class="cls-15" d="m135.25,451.61h-7.25c-2.76,0-5-2.24-5-5v-28.58h-33.34v44.65l1,5.83h33.53c1.41-6.95,5.46-12.94,11.06-16.89Z"/>
          <path class="cls-15" d="m166.71,451.61c5.6,3.95,9.65,9.95,11.06,16.89h209.27c1.41-6.95,5.46-12.94,11.06-16.89h-231.39Z"/>
          <path class="cls-15" d="m429.55,451.61c5.6,3.95,9.65,9.95,11.06,16.89h66.24c2.84,0,5.15-2.31,5.15-5.15v-11.74h-82.45Z"/>
        </g>
        <g>
          <circle class="cls-4" cx="150.98" cy="473.94" r="28.33"/>
          <path class="cls-12" d="m148,473.94c0-11.09,6.37-20.68,15.65-25.33-3.82-1.91-8.12-2.99-12.68-2.99-15.65,0-28.33,12.68-28.33,28.33s12.68,28.33,28.33,28.33c4.56,0,8.86-1.08,12.68-2.99-9.28-4.65-15.65-14.25-15.65-25.33Z"/>
          <circle class="cls-4" cx="413.82" cy="473.94" r="28.33"/>
          <path class="cls-12" d="m410.84,473.94c0-11.09,6.37-20.68,15.65-25.33-3.82-1.91-8.12-2.99-12.67-2.99-15.65,0-28.33,12.68-28.33,28.33s12.68,28.33,28.33,28.33c4.56,0,8.86-1.08,12.67-2.99-9.28-4.65-15.65-14.25-15.65-25.33Z"/>
        </g>
        <path class="cls-7" d="m0,74.48v22.72C0,100.05,2.31,102.35,5.15,102.35h55.13v355.85c0,5.69,4.61,10.3,10.3,10.3h20.08V89.93c0-11.38-9.22-20.6-20.6-20.6H5.15c-2.84,0-5.15,2.31-5.15,5.15h0Z"/>
      </g>
      <g>
        <path class="cls-8" d="m251.88,334.19v-198.72c-10.1,5.73-21.72,9.07-34.09,9.29v189.43c0,2.94,2.38,5.32,5.32,5.32h34.09c-2.94,0-5.32-2.38-5.32-5.32Z"/>
        <path class="cls-2" d="m436.07,45.65h-153c3.46,8.41,5.38,17.61,5.38,27.25,0,5.26-.58,10.39-1.66,15.34h154.61v-37.27c0-2.94-2.38-5.32-5.32-5.32h0Z"/>
        <g>
          <circle class="cls-9" cx="329.59" cy="324.45" r="56.27"/>
          <path class="cls-14" d="m308.29,324.45c0-24.97,16.27-46.13,38.79-53.49-5.51-1.8-11.38-2.78-17.48-2.78-31.08,0-56.27,25.19-56.27,56.27s25.19,56.27,56.27,56.27c6.11,0,11.98-.98,17.48-2.78-22.52-7.36-38.79-28.52-38.79-53.49Z"/>
          <path class="cls-6" d="m326.02,347.86c-1.92,0-3.84-.73-5.3-2.2l-21.86-21.86c-2.93-2.93-2.93-7.68,0-10.61,2.93-2.93,7.68-2.93,10.61,0l16.55,16.56,23.7-23.7c2.93-2.93,7.68-2.93,10.61,0,2.93,2.93,2.93,7.68,0,10.61l-29.01,29.01c-1.46,1.46-3.38,2.2-5.3,2.2h0Z"/>
        </g>
        <g>
          <path class="cls-15" d="m391.06,138.33h7.45c4.14,0,7.5-3.36,7.5-7.5s-3.36-7.5-7.5-7.5h-7.45c-4.14,0-7.5,3.36-7.5,7.5s3.36,7.5,7.5,7.5Z"/>
          <path class="cls-15" d="m339.96,123.33h-72.23c-4.11,4.17-8.72,7.85-13.74,10.92,1.24,2.42,3.76,4.08,6.67,4.08h79.29c4.14,0,7.5-3.36,7.5-7.5s-3.36-7.5-7.5-7.5Z"/>
          <path class="cls-15" d="m398.52,157.4h-137.85c-4.14,0-7.5,3.36-7.5,7.5s3.36,7.5,7.5,7.5h137.85c4.14,0,7.5-3.36,7.5-7.5s-3.36-7.5-7.5-7.5Z"/>
          <path class="cls-15" d="m398.52,191.47h-78.79c-4.14,0-7.5,3.36-7.5,7.5s3.36,7.5,7.5,7.5h78.79c4.14,0,7.5-3.36,7.5-7.5s-3.36-7.5-7.5-7.5Z"/>
          <path class="cls-15" d="m260.66,206.47h35.64c4.14,0,7.5-3.36,7.5-7.5s-3.36-7.5-7.5-7.5h-35.64c-4.14,0-7.5,3.36-7.5,7.5s3.36,7.5,7.5,7.5Z"/>
          <path class="cls-15" d="m398.52,225.54h-137.85c-4.14,0-7.5,3.36-7.5,7.5s3.36,7.5,7.5,7.5h137.85c4.14,0,7.5-3.36,7.5-7.5s-3.36-7.5-7.5-7.5Z"/>
        </g>
      </g>
      <g>
        <circle class="cls-3" cx="216.55" cy="72.9" r="72.9"/>
        <path class="cls-1" d="m178.2,72.9c0-34.31,23.7-63.06,55.62-70.82C228.28.73,222.5,0,216.55,0,176.29,0,143.65,32.64,143.65,72.9s32.64,72.9,72.9,72.9c5.95,0,11.74-.73,17.27-2.08-31.92-7.76-55.62-36.51-55.62-70.82Z"/>
        <path class="cls-11" d="m229.89,65.64h-26.65c-3.83,0-6.95-3.12-6.95-6.95v-.44c0-1.86.72-3.6,2.04-4.91s3.06-2.03,4.91-2.03h32.04c4.14,0,7.5-3.36,7.5-7.5s-3.36-7.5-7.5-7.5h-11.23v-3.51c0-4.14-3.36-7.5-7.5-7.5s-7.5,3.36-7.5,7.5v3.51h-5.81c-5.86,0-11.38,2.28-15.52,6.43-4.15,4.15-6.43,9.66-6.43,15.52v.44c0,12.1,9.85,21.95,21.95,21.95h26.65c3.82,0,6.92,3.11,6.92,6.92s-3.1,6.92-6.92,6.92h-32.32c-4.14,0-7.5,3.36-7.5,7.5s3.36,7.5,7.5,7.5h11.48v3.51c0,4.14,3.36,7.5,7.5,7.5s7.5-3.36,7.5-7.5v-3.51h5.84c12.09,0,21.92-9.83,21.92-21.92s-9.83-21.92-21.92-21.92h0Z"/>
      </g>
    </g>
  </g>
</svg>